<?xml version="1.0" encoding="utf-8"?>
<svg xmlns="http://www.w3.org/2000/svg" viewBox="0 0 500 500">
  <path d="M 495.36 250 C 495.36 385.509 385.509 495.36 250 495.36 C 114.491 495.36 4.64 385.509 4.64 250 C 4.64 114.491 114.491 4.64 250 4.64 C 385.509 4.64 495.36 114.491 495.36 250 Z M 377.807 174.915 L 377.807 325.084 C 377.809 343.088 377.809 359.251 376.96 373.245 C 376.662 378.186 376.257 382.855 375.707 387.241 C 375.462 389.21 375.182 391.17 374.861 393.12 C 374.209 397.08 377.27 400.814 381.267 400.462 C 389.163 399.769 396.292 398.291 402.951 394.644 C 413.371 388.936 421.844 379.827 427.155 368.625 C 430.547 361.466 431.923 353.801 432.568 345.316 C 433.191 337.116 433.191 327.028 433.191 314.694 L 433.191 185.308 C 433.191 172.973 433.191 162.883 432.568 154.685 C 431.923 146.198 430.547 138.533 427.155 131.375 C 421.844 120.173 413.371 111.065 402.951 105.357 C 396.292 101.71 389.163 100.231 381.267 99.537 C 377.27 99.186 374.209 102.921 374.861 106.88 C 375.182 108.829 375.462 110.79 375.707 112.759 C 376.257 117.145 376.662 121.815 376.96 126.755 C 377.809 140.749 377.809 156.911 377.807 174.915 Z M 123.039 126.755 C 123.338 121.815 123.744 117.145 124.292 112.759 C 124.539 110.79 124.819 108.829 125.139 106.88 C 125.791 102.921 122.73 99.186 118.732 99.537 C 110.838 100.231 103.708 101.71 97.049 105.357 C 86.628 111.065 78.156 120.173 72.846 131.375 C 69.453 138.533 68.077 146.198 67.432 154.685 C 66.809 162.884 66.809 172.972 66.809 185.308 L 66.809 314.692 C 66.809 327.028 66.809 337.116 67.432 345.316 C 68.077 353.801 69.453 361.466 72.846 368.625 C 78.156 379.827 86.628 388.936 97.049 394.644 C 103.708 398.291 110.838 399.769 118.732 400.462 C 122.73 400.814 125.791 397.08 125.139 393.12 C 124.819 391.17 124.539 389.21 124.292 387.241 C 123.744 382.855 123.338 378.186 123.039 373.245 C 122.191 359.251 122.191 343.088 122.192 325.084 L 122.192 174.915 C 122.191 156.911 122.191 140.749 123.039 126.755 Z M 147.754 323.276 C 147.754 375.09 147.754 400.997 162.728 417.094 C 177.701 433.191 201.801 433.191 250 433.191 C 298.199 433.191 322.298 433.191 337.272 417.094 C 352.246 400.997 352.246 375.09 352.246 323.276 L 352.246 176.724 C 352.246 124.909 352.246 99.002 337.272 82.906 C 322.298 66.809 298.199 66.809 250 66.809 C 201.801 66.809 177.701 66.809 162.728 82.906 C 147.754 99.002 147.754 124.909 147.754 176.724 Z M 304.957 199.623 C 312.545 199.623 318.697 205.774 318.697 213.362 C 318.697 220.95 312.545 227.101 304.957 227.101 C 296.712 227.101 288.928 225.121 282.058 221.607 L 282.058 286.638 C 282.058 314.461 259.504 337.016 231.681 337.016 C 203.858 337.016 181.303 314.461 181.303 286.638 C 181.303 258.815 203.858 236.261 231.681 236.261 C 239.926 236.261 247.71 238.241 254.58 241.755 L 254.58 176.724 C 254.58 169.136 260.731 162.984 268.319 162.984 C 275.907 162.984 282.058 169.136 282.058 176.724 C 282.058 189.37 292.31 199.623 304.957 199.623 Z M 208.782 286.638 C 208.782 299.286 219.033 309.537 231.681 309.537 C 244.328 309.537 254.58 299.286 254.58 286.638 C 254.58 273.991 244.328 263.739 231.681 263.739 C 219.033 263.739 208.782 273.991 208.782 286.638 Z" style="fill: rgb(233, 69, 96);"/>
</svg>