<svg width="256px" height="256px" viewBox="0 0 256 256"
    xmlns="http://www.w3.org/2000/svg" fill="#000000">
    <g stroke-linecap="round" stroke-linejoin="round" stroke="#CCCCCC" stroke-width="1.024"></g>
    <g>
        <g>
            <path d="m195.72 238.09c-3.5 2.24-138 1.79-141 0s-2.72-23.27 0-25.09 137.78-2.46 141 0 3.5 22.86 0 25.09z" fill="#190606"></path>
            <path d="m133.17 247.61h-8.17c-17.77 0-34.7-.19-47.66-.44-23.88-.47-24.66-.95-26.77-2.22-4-2.43-5.75-7.44-6-17.28-.37-17.27 3.86-20.09 5.67-21.29 2.23-1.48 2.9-1.93 27-2.44 12.89-.27 30.29-.45 47.74-.49 18.39 0 35.39.06 47.86.31 24.49.48 25.37 1.14 27.71 2.93 5.23 4 5.94 14.12 5.62 21.92-.36 8.74-2.26 13.75-6.16 16.24-2.3 1.47-4.32 2.76-66.84 2.76zm-72.41-16.91c21.68 1.2 109.18 1.24 129.25 0a49.88 49.88 0 0 0 -.09-10.44c-19.89-1.22-107.28-1.15-129.1.09a65.41 65.41 0 0 0 -.05 10.36z" fill="#190606"></path>
        </g>
        <g>
            <path d="m195.72 238.09c-3.5 2.24-138 1.79-141 0s-2.72-23.27 0-25.09 137.78-2.46 141 0 3.5 22.86 0 25.09z" fill="#e83a2a"></path>
        </g>
        <g>
            <path d="m205.41 211.92c-3.5 2.24-138 1.79-141 0s-2.69-23.27 0-25.06 137.78-2.46 141 0 3.5 22.82 0 25.06z" fill="#190606"></path>
            <path d="m142.85 221.43h-8.16c-17.77 0-34.7-.19-47.66-.44-23.88-.47-24.66-.95-26.77-2.22-4-2.43-5.75-7.44-6-17.28-.37-17.27 3.86-20.09 5.67-21.29 2.23-1.48 2.9-1.93 27-2.44 12.89-.27 30.29-.45 47.74-.49 18.4 0 35.39.06 47.86.31 24.49.48 25.37 1.14 27.71 2.93 5.23 4 5.94 14.12 5.62 21.92-.36 8.74-2.26 13.75-6.16 16.24-2.3 1.47-4.33 2.76-66.85 2.76zm-72.4-16.91c21.68 1.2 109.18 1.24 129.25 0a49.88 49.88 0 0 0 -.09-10.44c-19.89-1.22-107.28-1.15-129.1.09a65.41 65.41 0 0 0 -.05 10.36z" fill="#190606"></path>
        </g>
        <g>
            <path d="m205.41 211.92c-3.5 2.24-138 1.79-141 0s-2.69-23.27 0-25.06 137.78-2.46 141 0 3.5 22.82 0 25.06z" fill="#e83a2a"></path>
        </g>
        <g>
            <path d="m195.45 186.63c-7 1-138 1.79-141 0s-2.69-23.27 0-25.06 137.78-2.46 141 0 4.11 24.43 0 25.06z" fill="#190606"></path>
            <path d="m105.94 195.71c-51.94 0-53.38-.87-55.63-2.23-4-2.43-5.75-7.44-6-17.28-.31-17.26 3.9-20.08 5.69-21.28 2.23-1.48 2.9-1.93 27-2.44 12.89-.27 30.29-.45 47.74-.49 18.4 0 35.39.06 47.86.31 24.49.48 25.37 1.14 27.71 2.93 7.36 5.61 6.24 25.26 4.89 30.45-1.8 6.92-6.17 8.54-8.61 8.89-5.38.77-54.62 1.07-73.14 1.13zm-45.44-16.52c21.36.93 108.42.48 129.63-.25a50.78 50.78 0 0 0 -.4-10.07c-19.76-1.22-107.32-1.16-129.17.08a65.53 65.53 0 0 0 -.06 10.24z" fill="#190606"></path>
        </g>
        <g>
            <path d="m195.45 186.63c-7 1-138 1.79-141 0s-2.69-23.27 0-25.06 137.78-2.46 141 0 4.11 24.43 0 25.06z" fill="#e83a2a"></path>
        </g>
        <g>
            <path d="m200.55 89.36c0-40.28-30.58-74.12-72.94-72.94a74.66 74.66 0 0 0 -72.93 72.94c-1 39.79 30 73.25 72.94 72.94s72.14-32.43 72.93-72.94z" fill="#190606"></path>
            <path d="m127 170.3c-22.31 0-42.83-8.38-57.85-23.65a78.52 78.52 0 0 1 -22.47-57.48 82.88 82.88 0 0 1 80.71-80.74 77.44 77.44 0 0 1 56.7 21.72c15.55 15.12 24.46 36.7 24.46 59.21v.16c-.91 46.48-34.92 80.48-80.87 80.78zm2.73-145.9h-1.89a66.88 66.88 0 0 0 -65.16 65.15 62.65 62.65 0 0 0 17.9 45.88c11.98 12.18 28.42 18.87 46.42 18.87h.53c18.53-.14 34.64-6.7 46.58-19 11.51-11.83 18-28.18 18.41-46 0-18.19-7.17-35.56-19.62-47.66a61.37 61.37 0 0 0 -43.17-17.24z" fill="#190606"></path>
            <path d="m200.55 89.36c0-40.28-30.58-74.12-72.94-72.94a74.66 74.66 0 0 0 -72.93 72.94c-1 39.79 30 73.25 72.94 72.94s72.14-32.43 72.93-72.94z" fill="#e83a2a"></path>
            <path d="m181.16 89.86c0-29.35-19.73-54-53.15-53.15s-53.15 23.8-53.15 53.15 15.3 52.34 53.14 53.14 53.16-23.79 53.16-53.14z" fill="#ffffff"></path>
        </g>
        <g>
            <path d="m114.45 61.75c-4 2.52-2.79 54.16-.49 57.21s45.78-24.37 45.82-29.25-41.35-30.48-45.33-27.96z" fill="#e83a2a"></path>
        </g>
    </g>
</svg>